<svg width="210" height="211" viewBox="0 0 210 211" fill="none" xmlns="http://www.w3.org/2000/svg">
<path d="M3 1.65784C3 2.48626 2.32843 3.15784 1.5 3.15784C0.671573 3.15784 0 2.48626 0 1.65784C0 0.82941 0.671573 0.157837 1.5 0.157837C2.32843 0.157837 3 0.82941 3 1.65784Z" fill="#C4C4C4"/>
<path d="M26 1.65784C26 2.48626 25.3284 3.15784 24.5 3.15784C23.6716 3.15784 23 2.48626 23 1.65784C23 0.82941 23.6716 0.157837 24.5 0.157837C25.3284 0.157837 26 0.82941 26 1.65784Z" fill="#C4C4C4"/>
<path d="M49 1.65784C49 2.48626 48.3284 3.15784 47.5 3.15784C46.6716 3.15784 46 2.48626 46 1.65784C46 0.82941 46.6716 0.157837 47.5 0.157837C48.3284 0.157837 49 0.82941 49 1.65784Z" fill="#C4C4C4"/>
<path d="M72 1.65784C72 2.48626 71.3284 3.15784 70.5 3.15784C69.6716 3.15784 69 2.48626 69 1.65784C69 0.82941 69.6716 0.157837 70.5 0.157837C71.3284 0.157837 72 0.82941 72 1.65784Z" fill="#C4C4C4"/>
<path d="M95 1.65784C95 2.48626 94.3284 3.15784 93.5 3.15784C92.6716 3.15784 92 2.48626 92 1.65784C92 0.82941 92.6716 0.157837 93.5 0.157837C94.3284 0.157837 95 0.82941 95 1.65784Z" fill="#C4C4C4"/>
<path d="M118 1.65784C118 2.48626 117.328 3.15784 116.5 3.15784C115.672 3.15784 115 2.48626 115 1.65784C115 0.82941 115.672 0.157837 116.5 0.157837C117.328 0.157837 118 0.82941 118 1.65784Z" fill="#C4C4C4"/>
<path d="M141 1.65784C141 2.48626 140.328 3.15784 139.5 3.15784C138.672 3.15784 138 2.48626 138 1.65784C138 0.82941 138.672 0.157837 139.5 0.157837C140.328 0.157837 141 0.82941 141 1.65784Z" fill="#C4C4C4"/>
<path d="M164 1.65784C164 2.48626 163.328 3.15784 162.5 3.15784C161.672 3.15784 161 2.48626 161 1.65784C161 0.82941 161.672 0.157837 162.5 0.157837C163.328 0.157837 164 0.82941 164 1.65784Z" fill="#C4C4C4"/>
<path d="M187 1.65784C187 2.48626 186.328 3.15784 185.5 3.15784C184.672 3.15784 184 2.48626 184 1.65784C184 0.82941 184.672 0.157837 185.5 0.157837C186.328 0.157837 187 0.82941 187 1.65784Z" fill="#C4C4C4"/>
<path d="M210 1.65784C210 2.48626 209.328 3.15784 208.5 3.15784C207.672 3.15784 207 2.48626 207 1.65784C207 0.82941 207.672 0.157837 208.5 0.157837C209.328 0.157837 210 0.82941 210 1.65784Z" fill="#C4C4C4"/>
<path d="M3 24.6578C3 25.4863 2.32843 26.1578 1.5 26.1578C0.671573 26.1578 0 25.4863 0 24.6578C0 23.8294 0.671573 23.1578 1.5 23.1578C2.32843 23.1578 3 23.8294 3 24.6578Z" fill="#C4C4C4"/>
<path d="M26 24.6578C26 25.4863 25.3284 26.1578 24.5 26.1578C23.6716 26.1578 23 25.4863 23 24.6578C23 23.8294 23.6716 23.1578 24.5 23.1578C25.3284 23.1578 26 23.8294 26 24.6578Z" fill="#C4C4C4"/>
<path d="M49 24.6578C49 25.4863 48.3284 26.1578 47.5 26.1578C46.6716 26.1578 46 25.4863 46 24.6578C46 23.8294 46.6716 23.1578 47.5 23.1578C48.3284 23.1578 49 23.8294 49 24.6578Z" fill="#C4C4C4"/>
<path d="M72 24.6578C72 25.4863 71.3284 26.1578 70.5 26.1578C69.6716 26.1578 69 25.4863 69 24.6578C69 23.8294 69.6716 23.1578 70.5 23.1578C71.3284 23.1578 72 23.8294 72 24.6578Z" fill="#C4C4C4"/>
<path d="M95 24.6578C95 25.4863 94.3284 26.1578 93.5 26.1578C92.6716 26.1578 92 25.4863 92 24.6578C92 23.8294 92.6716 23.1578 93.5 23.1578C94.3284 23.1578 95 23.8294 95 24.6578Z" fill="#C4C4C4"/>
<path d="M118 24.6578C118 25.4863 117.328 26.1578 116.5 26.1578C115.672 26.1578 115 25.4863 115 24.6578C115 23.8294 115.672 23.1578 116.5 23.1578C117.328 23.1578 118 23.8294 118 24.6578Z" fill="#C4C4C4"/>
<path d="M141 24.6578C141 25.4863 140.328 26.1578 139.5 26.1578C138.672 26.1578 138 25.4863 138 24.6578C138 23.8294 138.672 23.1578 139.5 23.1578C140.328 23.1578 141 23.8294 141 24.6578Z" fill="#C4C4C4"/>
<path d="M164 24.6578C164 25.4863 163.328 26.1578 162.5 26.1578C161.672 26.1578 161 25.4863 161 24.6578C161 23.8294 161.672 23.1578 162.5 23.1578C163.328 23.1578 164 23.8294 164 24.6578Z" fill="#C4C4C4"/>
<path d="M187 24.6578C187 25.4863 186.328 26.1578 185.5 26.1578C184.672 26.1578 184 25.4863 184 24.6578C184 23.8294 184.672 23.1578 185.5 23.1578C186.328 23.1578 187 23.8294 187 24.6578Z" fill="#C4C4C4"/>
<path d="M210 24.6578C210 25.4863 209.328 26.1578 208.5 26.1578C207.672 26.1578 207 25.4863 207 24.6578C207 23.8294 207.672 23.1578 208.5 23.1578C209.328 23.1578 210 23.8294 210 24.6578Z" fill="#C4C4C4"/>
<path d="M3 47.6578C3 48.4863 2.32843 49.1578 1.5 49.1578C0.671573 49.1578 0 48.4863 0 47.6578C0 46.8294 0.671573 46.1578 1.5 46.1578C2.32843 46.1578 3 46.8294 3 47.6578Z" fill="#C4C4C4"/>
<path d="M26 47.6578C26 48.4863 25.3284 49.1578 24.5 49.1578C23.6716 49.1578 23 48.4863 23 47.6578C23 46.8294 23.6716 46.1578 24.5 46.1578C25.3284 46.1578 26 46.8294 26 47.6578Z" fill="#C4C4C4"/>
<path d="M49 47.6578C49 48.4863 48.3284 49.1578 47.5 49.1578C46.6716 49.1578 46 48.4863 46 47.6578C46 46.8294 46.6716 46.1578 47.5 46.1578C48.3284 46.1578 49 46.8294 49 47.6578Z" fill="#C4C4C4"/>
<path d="M72 47.6578C72 48.4863 71.3284 49.1578 70.5 49.1578C69.6716 49.1578 69 48.4863 69 47.6578C69 46.8294 69.6716 46.1578 70.5 46.1578C71.3284 46.1578 72 46.8294 72 47.6578Z" fill="#C4C4C4"/>
<path d="M95 47.6578C95 48.4863 94.3284 49.1578 93.5 49.1578C92.6716 49.1578 92 48.4863 92 47.6578C92 46.8294 92.6716 46.1578 93.5 46.1578C94.3284 46.1578 95 46.8294 95 47.6578Z" fill="#C4C4C4"/>
<path d="M118 47.6578C118 48.4863 117.328 49.1578 116.5 49.1578C115.672 49.1578 115 48.4863 115 47.6578C115 46.8294 115.672 46.1578 116.5 46.1578C117.328 46.1578 118 46.8294 118 47.6578Z" fill="#C4C4C4"/>
<path d="M141 47.6578C141 48.4863 140.328 49.1578 139.5 49.1578C138.672 49.1578 138 48.4863 138 47.6578C138 46.8294 138.672 46.1578 139.5 46.1578C140.328 46.1578 141 46.8294 141 47.6578Z" fill="#C4C4C4"/>
<path d="M164 47.6578C164 48.4863 163.328 49.1578 162.5 49.1578C161.672 49.1578 161 48.4863 161 47.6578C161 46.8294 161.672 46.1578 162.5 46.1578C163.328 46.1578 164 46.8294 164 47.6578Z" fill="#C4C4C4"/>
<path d="M187 47.6578C187 48.4863 186.328 49.1578 185.5 49.1578C184.672 49.1578 184 48.4863 184 47.6578C184 46.8294 184.672 46.1578 185.5 46.1578C186.328 46.1578 187 46.8294 187 47.6578Z" fill="#C4C4C4"/>
<path d="M210 47.6578C210 48.4863 209.328 49.1578 208.5 49.1578C207.672 49.1578 207 48.4863 207 47.6578C207 46.8294 207.672 46.1578 208.5 46.1578C209.328 46.1578 210 46.8294 210 47.6578Z" fill="#C4C4C4"/>
<path d="M3 70.6578C3 71.4863 2.32843 72.1578 1.5 72.1578C0.671573 72.1578 0 71.4863 0 70.6578C0 69.8294 0.671573 69.1578 1.5 69.1578C2.32843 69.1578 3 69.8294 3 70.6578Z" fill="#C4C4C4"/>
<path d="M26 70.6578C26 71.4863 25.3284 72.1578 24.5 72.1578C23.6716 72.1578 23 71.4863 23 70.6578C23 69.8294 23.6716 69.1578 24.5 69.1578C25.3284 69.1578 26 69.8294 26 70.6578Z" fill="#C4C4C4"/>
<path d="M49 70.6578C49 71.4863 48.3284 72.1578 47.5 72.1578C46.6716 72.1578 46 71.4863 46 70.6578C46 69.8294 46.6716 69.1578 47.5 69.1578C48.3284 69.1578 49 69.8294 49 70.6578Z" fill="#C4C4C4"/>
<path d="M72 70.6578C72 71.4863 71.3284 72.1578 70.5 72.1578C69.6716 72.1578 69 71.4863 69 70.6578C69 69.8294 69.6716 69.1578 70.5 69.1578C71.3284 69.1578 72 69.8294 72 70.6578Z" fill="#C4C4C4"/>
<path d="M95 70.6578C95 71.4863 94.3284 72.1578 93.5 72.1578C92.6716 72.1578 92 71.4863 92 70.6578C92 69.8294 92.6716 69.1578 93.5 69.1578C94.3284 69.1578 95 69.8294 95 70.6578Z" fill="#C4C4C4"/>
<path d="M118 70.6578C118 71.4863 117.328 72.1578 116.5 72.1578C115.672 72.1578 115 71.4863 115 70.6578C115 69.8294 115.672 69.1578 116.5 69.1578C117.328 69.1578 118 69.8294 118 70.6578Z" fill="#C4C4C4"/>
<path d="M141 70.6578C141 71.4863 140.328 72.1578 139.5 72.1578C138.672 72.1578 138 71.4863 138 70.6578C138 69.8294 138.672 69.1578 139.5 69.1578C140.328 69.1578 141 69.8294 141 70.6578Z" fill="#C4C4C4"/>
<path d="M164 70.6578C164 71.4863 163.328 72.1578 162.5 72.1578C161.672 72.1578 161 71.4863 161 70.6578C161 69.8294 161.672 69.1578 162.5 69.1578C163.328 69.1578 164 69.8294 164 70.6578Z" fill="#C4C4C4"/>
<path d="M187 70.6578C187 71.4863 186.328 72.1578 185.5 72.1578C184.672 72.1578 184 71.4863 184 70.6578C184 69.8294 184.672 69.1578 185.5 69.1578C186.328 69.1578 187 69.8294 187 70.6578Z" fill="#C4C4C4"/>
<path d="M210 70.6578C210 71.4863 209.328 72.1578 208.5 72.1578C207.672 72.1578 207 71.4863 207 70.6578C207 69.8294 207.672 69.1578 208.5 69.1578C209.328 69.1578 210 69.8294 210 70.6578Z" fill="#C4C4C4"/>
<path d="M3 93.6578C3 94.4863 2.32843 95.1578 1.5 95.1578C0.671573 95.1578 0 94.4863 0 93.6578C0 92.8294 0.671573 92.1578 1.5 92.1578C2.32843 92.1578 3 92.8294 3 93.6578Z" fill="#C4C4C4"/>
<path d="M26 93.6578C26 94.4863 25.3284 95.1578 24.5 95.1578C23.6716 95.1578 23 94.4863 23 93.6578C23 92.8294 23.6716 92.1578 24.5 92.1578C25.3284 92.1578 26 92.8294 26 93.6578Z" fill="#C4C4C4"/>
<path d="M49 93.6578C49 94.4863 48.3284 95.1578 47.5 95.1578C46.6716 95.1578 46 94.4863 46 93.6578C46 92.8294 46.6716 92.1578 47.5 92.1578C48.3284 92.1578 49 92.8294 49 93.6578Z" fill="#C4C4C4"/>
<path d="M72 93.6578C72 94.4863 71.3284 95.1578 70.5 95.1578C69.6716 95.1578 69 94.4863 69 93.6578C69 92.8294 69.6716 92.1578 70.5 92.1578C71.3284 92.1578 72 92.8294 72 93.6578Z" fill="#C4C4C4"/>
<path d="M95 93.6578C95 94.4863 94.3284 95.1578 93.5 95.1578C92.6716 95.1578 92 94.4863 92 93.6578C92 92.8294 92.6716 92.1578 93.5 92.1578C94.3284 92.1578 95 92.8294 95 93.6578Z" fill="#C4C4C4"/>
<path d="M118 93.6578C118 94.4863 117.328 95.1578 116.5 95.1578C115.672 95.1578 115 94.4863 115 93.6578C115 92.8294 115.672 92.1578 116.5 92.1578C117.328 92.1578 118 92.8294 118 93.6578Z" fill="#C4C4C4"/>
<path d="M141 93.6578C141 94.4863 140.328 95.1578 139.5 95.1578C138.672 95.1578 138 94.4863 138 93.6578C138 92.8294 138.672 92.1578 139.5 92.1578C140.328 92.1578 141 92.8294 141 93.6578Z" fill="#C4C4C4"/>
<path d="M164 93.6578C164 94.4863 163.328 95.1578 162.5 95.1578C161.672 95.1578 161 94.4863 161 93.6578C161 92.8294 161.672 92.1578 162.5 92.1578C163.328 92.1578 164 92.8294 164 93.6578Z" fill="#C4C4C4"/>
<path d="M187 93.6578C187 94.4863 186.328 95.1578 185.5 95.1578C184.672 95.1578 184 94.4863 184 93.6578C184 92.8294 184.672 92.1578 185.5 92.1578C186.328 92.1578 187 92.8294 187 93.6578Z" fill="#C4C4C4"/>
<path d="M210 93.6578C210 94.4863 209.328 95.1578 208.5 95.1578C207.672 95.1578 207 94.4863 207 93.6578C207 92.8294 207.672 92.1578 208.5 92.1578C209.328 92.1578 210 92.8294 210 93.6578Z" fill="#C4C4C4"/>
<path d="M3 116.658C3 117.486 2.32843 118.158 1.5 118.158C0.671573 118.158 0 117.486 0 116.658C0 115.829 0.671573 115.158 1.5 115.158C2.32843 115.158 3 115.829 3 116.658Z" fill="#C4C4C4"/>
<path d="M26 116.658C26 117.486 25.3284 118.158 24.5 118.158C23.6716 118.158 23 117.486 23 116.658C23 115.829 23.6716 115.158 24.5 115.158C25.3284 115.158 26 115.829 26 116.658Z" fill="#C4C4C4"/>
<path d="M49 116.658C49 117.486 48.3284 118.158 47.5 118.158C46.6716 118.158 46 117.486 46 116.658C46 115.829 46.6716 115.158 47.5 115.158C48.3284 115.158 49 115.829 49 116.658Z" fill="#C4C4C4"/>
<path d="M72 116.658C72 117.486 71.3284 118.158 70.5 118.158C69.6716 118.158 69 117.486 69 116.658C69 115.829 69.6716 115.158 70.5 115.158C71.3284 115.158 72 115.829 72 116.658Z" fill="#C4C4C4"/>
<path d="M95 116.658C95 117.486 94.3284 118.158 93.5 118.158C92.6716 118.158 92 117.486 92 116.658C92 115.829 92.6716 115.158 93.5 115.158C94.3284 115.158 95 115.829 95 116.658Z" fill="#C4C4C4"/>
<path d="M118 116.658C118 117.486 117.328 118.158 116.5 118.158C115.672 118.158 115 117.486 115 116.658C115 115.829 115.672 115.158 116.5 115.158C117.328 115.158 118 115.829 118 116.658Z" fill="#C4C4C4"/>
<path d="M141 116.658C141 117.486 140.328 118.158 139.5 118.158C138.672 118.158 138 117.486 138 116.658C138 115.829 138.672 115.158 139.5 115.158C140.328 115.158 141 115.829 141 116.658Z" fill="#C4C4C4"/>
<path d="M164 116.658C164 117.486 163.328 118.158 162.5 118.158C161.672 118.158 161 117.486 161 116.658C161 115.829 161.672 115.158 162.5 115.158C163.328 115.158 164 115.829 164 116.658Z" fill="#C4C4C4"/>
<path d="M187 116.658C187 117.486 186.328 118.158 185.5 118.158C184.672 118.158 184 117.486 184 116.658C184 115.829 184.672 115.158 185.5 115.158C186.328 115.158 187 115.829 187 116.658Z" fill="#C4C4C4"/>
<path d="M210 116.658C210 117.486 209.328 118.158 208.5 118.158C207.672 118.158 207 117.486 207 116.658C207 115.829 207.672 115.158 208.5 115.158C209.328 115.158 210 115.829 210 116.658Z" fill="#C4C4C4"/>
<path d="M3 139.658C3 140.486 2.32843 141.158 1.5 141.158C0.671573 141.158 0 140.486 0 139.658C0 138.829 0.671573 138.158 1.5 138.158C2.32843 138.158 3 138.829 3 139.658Z" fill="#C4C4C4"/>
<path d="M26 139.658C26 140.486 25.3284 141.158 24.5 141.158C23.6716 141.158 23 140.486 23 139.658C23 138.829 23.6716 138.158 24.5 138.158C25.3284 138.158 26 138.829 26 139.658Z" fill="#C4C4C4"/>
<path d="M49 139.658C49 140.486 48.3284 141.158 47.5 141.158C46.6716 141.158 46 140.486 46 139.658C46 138.829 46.6716 138.158 47.5 138.158C48.3284 138.158 49 138.829 49 139.658Z" fill="#C4C4C4"/>
<path d="M72 139.658C72 140.486 71.3284 141.158 70.5 141.158C69.6716 141.158 69 140.486 69 139.658C69 138.829 69.6716 138.158 70.5 138.158C71.3284 138.158 72 138.829 72 139.658Z" fill="#C4C4C4"/>
<path d="M95 139.658C95 140.486 94.3284 141.158 93.5 141.158C92.6716 141.158 92 140.486 92 139.658C92 138.829 92.6716 138.158 93.5 138.158C94.3284 138.158 95 138.829 95 139.658Z" fill="#C4C4C4"/>
<path d="M118 139.658C118 140.486 117.328 141.158 116.5 141.158C115.672 141.158 115 140.486 115 139.658C115 138.829 115.672 138.158 116.5 138.158C117.328 138.158 118 138.829 118 139.658Z" fill="#C4C4C4"/>
<path d="M141 139.658C141 140.486 140.328 141.158 139.5 141.158C138.672 141.158 138 140.486 138 139.658C138 138.829 138.672 138.158 139.5 138.158C140.328 138.158 141 138.829 141 139.658Z" fill="#C4C4C4"/>
<path d="M164 139.658C164 140.486 163.328 141.158 162.5 141.158C161.672 141.158 161 140.486 161 139.658C161 138.829 161.672 138.158 162.5 138.158C163.328 138.158 164 138.829 164 139.658Z" fill="#C4C4C4"/>
<path d="M187 139.658C187 140.486 186.328 141.158 185.5 141.158C184.672 141.158 184 140.486 184 139.658C184 138.829 184.672 138.158 185.5 138.158C186.328 138.158 187 138.829 187 139.658Z" fill="#C4C4C4"/>
<path d="M210 139.658C210 140.486 209.328 141.158 208.5 141.158C207.672 141.158 207 140.486 207 139.658C207 138.829 207.672 138.158 208.5 138.158C209.328 138.158 210 138.829 210 139.658Z" fill="#C4C4C4"/>
<path d="M3 162.658C3 163.486 2.32843 164.158 1.5 164.158C0.671573 164.158 0 163.486 0 162.658C0 161.829 0.671573 161.158 1.5 161.158C2.32843 161.158 3 161.829 3 162.658Z" fill="#C4C4C4"/>
<path d="M26 162.658C26 163.486 25.3284 164.158 24.5 164.158C23.6716 164.158 23 163.486 23 162.658C23 161.829 23.6716 161.158 24.5 161.158C25.3284 161.158 26 161.829 26 162.658Z" fill="#C4C4C4"/>
<path d="M49 162.658C49 163.486 48.3284 164.158 47.5 164.158C46.6716 164.158 46 163.486 46 162.658C46 161.829 46.6716 161.158 47.5 161.158C48.3284 161.158 49 161.829 49 162.658Z" fill="#C4C4C4"/>
<path d="M72 162.658C72 163.486 71.3284 164.158 70.5 164.158C69.6716 164.158 69 163.486 69 162.658C69 161.829 69.6716 161.158 70.5 161.158C71.3284 161.158 72 161.829 72 162.658Z" fill="#C4C4C4"/>
<path d="M95 162.658C95 163.486 94.3284 164.158 93.5 164.158C92.6716 164.158 92 163.486 92 162.658C92 161.829 92.6716 161.158 93.5 161.158C94.3284 161.158 95 161.829 95 162.658Z" fill="#C4C4C4"/>
<path d="M118 162.658C118 163.486 117.328 164.158 116.5 164.158C115.672 164.158 115 163.486 115 162.658C115 161.829 115.672 161.158 116.5 161.158C117.328 161.158 118 161.829 118 162.658Z" fill="#C4C4C4"/>
<path d="M141 162.658C141 163.486 140.328 164.158 139.5 164.158C138.672 164.158 138 163.486 138 162.658C138 161.829 138.672 161.158 139.5 161.158C140.328 161.158 141 161.829 141 162.658Z" fill="#C4C4C4"/>
<path d="M164 162.658C164 163.486 163.328 164.158 162.5 164.158C161.672 164.158 161 163.486 161 162.658C161 161.829 161.672 161.158 162.5 161.158C163.328 161.158 164 161.829 164 162.658Z" fill="#C4C4C4"/>
<path d="M187 162.658C187 163.486 186.328 164.158 185.5 164.158C184.672 164.158 184 163.486 184 162.658C184 161.829 184.672 161.158 185.5 161.158C186.328 161.158 187 161.829 187 162.658Z" fill="#C4C4C4"/>
<path d="M210 162.658C210 163.486 209.328 164.158 208.5 164.158C207.672 164.158 207 163.486 207 162.658C207 161.829 207.672 161.158 208.5 161.158C209.328 161.158 210 161.829 210 162.658Z" fill="#C4C4C4"/>
<path d="M3 185.658C3 186.486 2.32843 187.158 1.5 187.158C0.671573 187.158 0 186.486 0 185.658C0 184.829 0.671573 184.158 1.5 184.158C2.32843 184.158 3 184.829 3 185.658Z" fill="#C4C4C4"/>
<path d="M26 185.658C26 186.486 25.3284 187.158 24.5 187.158C23.6716 187.158 23 186.486 23 185.658C23 184.829 23.6716 184.158 24.5 184.158C25.3284 184.158 26 184.829 26 185.658Z" fill="#C4C4C4"/>
<path d="M49 185.658C49 186.486 48.3284 187.158 47.5 187.158C46.6716 187.158 46 186.486 46 185.658C46 184.829 46.6716 184.158 47.5 184.158C48.3284 184.158 49 184.829 49 185.658Z" fill="#C4C4C4"/>
<path d="M72 185.658C72 186.486 71.3284 187.158 70.5 187.158C69.6716 187.158 69 186.486 69 185.658C69 184.829 69.6716 184.158 70.5 184.158C71.3284 184.158 72 184.829 72 185.658Z" fill="#C4C4C4"/>
<path d="M95 185.658C95 186.486 94.3284 187.158 93.5 187.158C92.6716 187.158 92 186.486 92 185.658C92 184.829 92.6716 184.158 93.5 184.158C94.3284 184.158 95 184.829 95 185.658Z" fill="#C4C4C4"/>
<path d="M118 185.658C118 186.486 117.328 187.158 116.5 187.158C115.672 187.158 115 186.486 115 185.658C115 184.829 115.672 184.158 116.5 184.158C117.328 184.158 118 184.829 118 185.658Z" fill="#C4C4C4"/>
<path d="M141 185.658C141 186.486 140.328 187.158 139.5 187.158C138.672 187.158 138 186.486 138 185.658C138 184.829 138.672 184.158 139.5 184.158C140.328 184.158 141 184.829 141 185.658Z" fill="#C4C4C4"/>
<path d="M164 185.658C164 186.486 163.328 187.158 162.5 187.158C161.672 187.158 161 186.486 161 185.658C161 184.829 161.672 184.158 162.5 184.158C163.328 184.158 164 184.829 164 185.658Z" fill="#C4C4C4"/>
<path d="M187 185.658C187 186.486 186.328 187.158 185.5 187.158C184.672 187.158 184 186.486 184 185.658C184 184.829 184.672 184.158 185.5 184.158C186.328 184.158 187 184.829 187 185.658Z" fill="#C4C4C4"/>
<path d="M210 185.658C210 186.486 209.328 187.158 208.5 187.158C207.672 187.158 207 186.486 207 185.658C207 184.829 207.672 184.158 208.5 184.158C209.328 184.158 210 184.829 210 185.658Z" fill="#C4C4C4"/>
<path d="M3 208.658C3 209.486 2.32843 210.158 1.5 210.158C0.671573 210.158 0 209.486 0 208.658C0 207.829 0.671573 207.158 1.5 207.158C2.32843 207.158 3 207.829 3 208.658Z" fill="#C4C4C4"/>
<path d="M26 208.658C26 209.486 25.3284 210.158 24.5 210.158C23.6716 210.158 23 209.486 23 208.658C23 207.829 23.6716 207.158 24.5 207.158C25.3284 207.158 26 207.829 26 208.658Z" fill="#C4C4C4"/>
<path d="M49 208.658C49 209.486 48.3284 210.158 47.5 210.158C46.6716 210.158 46 209.486 46 208.658C46 207.829 46.6716 207.158 47.5 207.158C48.3284 207.158 49 207.829 49 208.658Z" fill="#C4C4C4"/>
<path d="M72 208.658C72 209.486 71.3284 210.158 70.5 210.158C69.6716 210.158 69 209.486 69 208.658C69 207.829 69.6716 207.158 70.5 207.158C71.3284 207.158 72 207.829 72 208.658Z" fill="#C4C4C4"/>
<path d="M95 208.658C95 209.486 94.3284 210.158 93.5 210.158C92.6716 210.158 92 209.486 92 208.658C92 207.829 92.6716 207.158 93.5 207.158C94.3284 207.158 95 207.829 95 208.658Z" fill="#C4C4C4"/>
<path d="M118 208.658C118 209.486 117.328 210.158 116.5 210.158C115.672 210.158 115 209.486 115 208.658C115 207.829 115.672 207.158 116.5 207.158C117.328 207.158 118 207.829 118 208.658Z" fill="#C4C4C4"/>
<path d="M141 208.658C141 209.486 140.328 210.158 139.5 210.158C138.672 210.158 138 209.486 138 208.658C138 207.829 138.672 207.158 139.5 207.158C140.328 207.158 141 207.829 141 208.658Z" fill="#C4C4C4"/>
<path d="M164 208.658C164 209.486 163.328 210.158 162.5 210.158C161.672 210.158 161 209.486 161 208.658C161 207.829 161.672 207.158 162.5 207.158C163.328 207.158 164 207.829 164 208.658Z" fill="#C4C4C4"/>
<path d="M187 208.658C187 209.486 186.328 210.158 185.5 210.158C184.672 210.158 184 209.486 184 208.658C184 207.829 184.672 207.158 185.5 207.158C186.328 207.158 187 207.829 187 208.658Z" fill="#C4C4C4"/>
<path d="M210 208.658C210 209.486 209.328 210.158 208.5 210.158C207.672 210.158 207 209.486 207 208.658C207 207.829 207.672 207.158 208.5 207.158C209.328 207.158 210 207.829 210 208.658Z" fill="#C4C4C4"/>
</svg>
