<svg width="33" height="33" viewBox="0 0 33 33" fill="none" xmlns="http://www.w3.org/2000/svg">
<rect x="0.160645" y="0.0328369" width="32" height="32" rx="4" fill="white"/>
<path d="M9.9483 15.017C9.9483 14.9309 9.9544 14.845 9.96656 14.7599L11.5281 3.81959C11.585 3.44635 11.7416 3.17359 11.9977 3.00132C12.2824 2.82905 12.5955 2.74292 12.9371 2.74292C13.5633 2.74292 14.0614 2.92954 14.4314 3.30279C14.7923 3.6388 15.0991 4.05673 15.3516 4.55659C15.3634 4.57993 15.3873 4.59479 15.4135 4.59479V4.59479C15.755 4.59479 16.0539 4.53737 16.3101 4.42253C16.5947 4.27897 16.9363 4.20719 17.3348 4.20719C18.2457 4.20719 19.0142 4.49431 19.6404 5.06853C20.2951 5.64275 20.8217 6.34618 21.2202 7.17881C21.6187 7.98272 21.9033 8.85841 22.0741 9.80588C22.2734 10.7534 22.373 11.586 22.373 12.3038C22.373 13.1651 22.1453 14.1269 21.6899 15.1892C21.2629 16.2516 20.6794 17.2564 19.9393 18.2039C19.2277 19.1514 18.4165 19.9409 17.5056 20.5726C16.5947 21.2042 15.6696 21.5201 14.7303 21.5201C13.8764 21.5201 13.1363 21.3191 12.5101 20.9171C11.9123 20.5152 11.4142 20.0127 11.0157 19.4098C10.6457 18.7781 10.3753 18.0747 10.2045 17.2995C10.0337 16.5243 9.9483 15.7635 9.9483 15.017V15.017ZM13.5348 15.017C13.5348 15.1029 13.5434 15.1886 13.5594 15.273C13.6081 15.5293 13.6569 15.8172 13.7056 16.1367C13.7625 16.51 13.8479 16.8545 13.9618 17.1703C14.0384 17.3635 14.1343 17.5307 14.2496 17.6718C14.3597 17.8067 14.4645 17.903 14.6337 17.9441V17.9441C15.0896 18.0546 15.5491 17.696 15.886 17.3697C16.1041 17.1584 16.3309 16.934 16.5663 16.6966C16.9932 16.2659 17.3917 15.8065 17.7618 15.3184C18.1603 14.8303 18.4876 14.3135 18.7438 13.768C19 13.2225 19.1281 12.6483 19.1281 12.0454C19.2419 11.0692 19.1708 10.1791 18.9146 9.37521C18.6584 8.54259 18.2884 7.95401 17.8045 7.60947C17.349 7.23623 16.8224 7.19316 16.2247 7.48027C15.6269 7.73867 15.0292 8.47081 14.4314 9.67668C14.0899 10.4232 13.8479 11.2989 13.7056 12.3038C13.5917 13.2799 13.5348 14.1843 13.5348 15.017V15.017Z" fill="#352F6A"/>
<path d="M22.9923 28.5316L22.9823 28.5233C22.9309 28.4811 22.8887 28.4251 22.8657 28.356C22.8431 28.288 22.8441 28.2225 22.8549 28.1676C22.8748 28.0657 22.9316 27.981 22.9766 27.9242C23.0696 27.8067 23.2012 27.7 23.2716 27.6438C23.2719 27.6435 23.2723 27.6433 23.2726 27.643L23.4285 27.8384C23.6202 27.6822 23.7392 27.6138 23.9081 27.517C24.3054 27.2869 24.7033 27.0574 25.105 26.8258C25.346 26.6867 25.5885 26.5469 25.833 26.4057C26.0433 26.2842 25.9754 26.0578 25.7372 26.1054M22.9923 28.5316L25.7372 26.1054M22.9923 28.5316L23.0031 28.5387M22.9923 28.5316L23.0031 28.5387M25.7372 26.1054L25.7672 26.2917L25.7751 26.3409C25.7767 26.3417 25.7782 26.3425 25.7798 26.3432C25.7817 26.3441 25.7835 26.3448 25.7852 26.3454L25.7783 26.311L25.7372 26.1054ZM25.2947 26.4278C25.1895 26.4884 25.0847 26.5489 24.9801 26.6092C24.5784 26.8408 24.1804 27.0704 23.7831 27.3005L25.2947 26.4278ZM25.2947 26.4278C21.8955 26.9464 18.4719 27.1684 15.0201 26.6322C11.5125 26.0876 8.13751 25.103 5.01724 23.3344L5.01497 23.3331L5.01498 23.3331C5.00772 23.3288 5.00042 23.3246 4.99308 23.3204C4.77433 23.1934 4.52403 23.0481 4.31182 22.859C4.30818 22.8559 4.30392 22.8523 4.29912 22.8482C4.25655 22.8123 4.17203 22.7409 4.11611 22.6461C4.04042 22.5179 4.0204 22.3636 4.07682 22.1896L4.08201 22.1736L4.08929 22.1584C4.12115 22.0921 4.17101 22.0317 4.24231 21.9898C4.31153 21.9491 4.38447 21.9356 4.44866 21.9344C4.56725 21.9322 4.69302 21.9719 4.80741 22.0174C4.97202 22.0802 5.14882 22.1514 5.31891 22.2375L5.32034 22.2382L5.32034 22.2382C7.97862 23.6049 10.7855 24.5409 13.7173 25.1408L13.6674 25.3847L13.7173 25.1408C17.4087 25.8962 21.1232 25.7713 24.8607 25.374C25.1328 25.3436 25.2576 25.201 25.2906 25.0729C25.3241 24.9426 25.2822 24.7511 25.0601 24.5857C24.6546 24.2838 24.2372 23.9729 23.9417 23.7486C23.8763 23.7007 23.7886 23.6191 23.7283 23.5161C23.6683 23.4138 23.6037 23.2266 23.7261 23.0447C23.7263 23.0443 23.7265 23.044 23.7268 23.0436L23.9339 23.1837L25.2947 26.4278ZM23.0031 28.5387C23.0803 28.5898 23.1882 28.6559 23.3394 28.6667C23.4837 28.6771 23.6337 28.6352 23.804 28.5584L23.8052 28.5579M23.0031 28.5387L23.8052 28.5579M23.8052 28.5579C24.5924 28.1981 25.3198 27.7294 26.0249 27.2751C26.0526 27.2573 26.0802 27.2395 26.1078 27.2217L26.1079 27.2216M23.8052 28.5579L26.1079 27.2216M26.1079 27.2216C26.7589 26.8018 27.2514 26.4701 27.8085 26.0624L27.8085 26.0624M26.1079 27.2216L27.8085 26.0624M27.8085 26.0624C27.9664 25.9468 28.0989 25.7866 28.1054 25.5777C28.1118 25.3719 27.9928 25.2069 27.8588 25.0871L27.8587 25.0871M27.8085 26.0624L27.8587 25.0871M27.8587 25.0871C27.8426 25.0727 27.8264 25.0582 27.8099 25.0434M27.8587 25.0871L27.8099 25.0434M27.8099 25.0434C27.6312 24.8833 27.4284 24.7015 27.1983 24.5636M27.8099 25.0434L27.1983 24.5636M27.1983 24.5636C26.6072 24.2053 26.0101 23.8586 25.4143 23.5126C25.1876 23.381 24.961 23.2494 24.735 23.1173L27.1983 24.5636Z" fill="#8980F5" stroke="#8980F5" stroke-width="0.5"/>
</svg>
