<svg width="33" height="33" viewBox="0 0 33 33" fill="none" xmlns="http://www.w3.org/2000/svg">
<rect x="1.2287" y="1.68689" width="30.5" height="30.5" rx="4.25" fill="#FF5D73" stroke="#FF5D73" stroke-width="1.5"/>
<path d="M10.9787 16.4323L12.3773 6.41166C12.4277 6.07374 12.5663 5.8268 12.7931 5.67083C13.0451 5.51487 13.3223 5.43689 13.6247 5.43689C14.1792 5.43689 14.6202 5.60585 14.9478 5.94377C15.2674 6.24812 15.5391 6.6267 15.7628 7.07952C15.773 7.10025 15.7941 7.1135 15.8172 7.1135V7.1135C16.1196 7.1135 16.3842 7.06151 16.611 6.95753C16.863 6.82756 17.1654 6.76258 17.5182 6.76258C18.3246 6.76258 19.005 7.02252 19.5595 7.54239C20.1391 8.06227 20.6053 8.69912 20.9581 9.45294C21.3109 10.1808 21.5629 10.9736 21.7141 11.8314C21.8905 12.6892 21.9787 13.443 21.9787 14.0929C21.9787 14.8727 21.7771 15.7435 21.3739 16.7052C20.9959 17.667 20.4793 18.5768 19.8241 19.4346C19.194 20.2924 18.4758 21.0072 17.6694 21.5791C16.863 22.151 16.044 22.4369 15.2124 22.4369C14.4564 22.4369 13.8011 22.2549 13.2467 21.891C12.7175 21.5271 12.2765 21.0722 11.9237 20.5263C11.5961 19.9545 11.3567 19.3176 11.2055 18.6158C11.0543 17.914 10.9787 17.2251 10.9787 16.5493V16.4323ZM14.154 16.5493C14.154 16.6271 14.1615 16.7046 14.1758 16.7811C14.2189 17.0132 14.262 17.2738 14.3052 17.563C14.3556 17.901 14.4312 18.2129 14.532 18.4988C14.6002 18.6748 14.6858 18.8269 14.7886 18.9552C14.8849 19.0754 14.9769 19.162 15.1263 19.1992V19.1992C15.5303 19.2997 15.9361 18.9758 16.2318 18.683C16.4261 18.4906 16.6281 18.2863 16.8378 18.0699C17.2158 17.68 17.5686 17.2641 17.8962 16.8222C18.249 16.3803 18.5388 15.9124 18.7656 15.4185C18.9924 14.9247 19.1058 14.4048 19.1058 13.8589C19.2066 12.9751 19.1436 12.1693 18.9168 11.4415C18.69 10.6877 18.3624 10.1548 17.934 9.84285C17.5308 9.50493 17.0646 9.46594 16.5354 9.72588C16.0062 9.95983 15.477 10.6227 14.9478 11.7144C14.6454 12.3903 14.4312 13.1831 14.3052 14.0929C14.2044 14.9766 14.154 15.7955 14.154 16.5493V16.5493Z" fill="#FAFCFE"/>
<path d="M22.6205 28.5478L22.6106 28.539C22.5014 28.442 22.4736 28.3114 22.4943 28.1972C22.5118 28.1004 22.5622 28.0188 22.6032 27.9629C22.6871 27.8483 22.8057 27.7445 22.8687 27.6902M22.6205 28.5478L23.0328 27.8788M22.6205 28.5478L22.6313 28.5556M22.6205 28.5478L22.6313 28.5556M22.8687 27.6902C22.869 27.6899 22.8693 27.6897 22.8697 27.6894L23.0328 27.8788M22.8687 27.6902C22.8683 27.6905 22.868 27.6908 22.8677 27.6911L23.0328 27.8788M22.8687 27.6902C23.0546 27.5267 23.1746 27.4522 23.3283 27.3571M23.0328 27.8788C23.2037 27.7285 23.3098 27.6626 23.4603 27.5694M23.3283 27.3571C23.3281 27.3572 23.3279 27.3573 23.3277 27.3575L23.4603 27.5694M23.3283 27.3571C23.3285 27.357 23.3286 27.3569 23.3287 27.3568L23.4603 27.5694M23.3283 27.3571C23.6824 27.1356 24.0373 26.9146 24.3953 26.6917C24.476 26.6414 24.5568 26.5911 24.6379 26.5406C21.6272 27.0325 18.5923 27.24 15.5313 26.7266C12.4009 26.2018 9.38788 25.2527 6.6023 23.5477L6.59999 23.5463L6.6 23.5462C6.59337 23.5421 6.5867 23.5379 6.57999 23.5337C6.38532 23.4117 6.16015 23.2706 5.96921 23.0869C5.96606 23.0839 5.96235 23.0806 5.95816 23.0767C5.92018 23.0421 5.84297 22.9718 5.79228 22.879C5.72485 22.7556 5.70765 22.6095 5.75726 22.4443L5.76183 22.4291L5.76828 22.4146C5.79645 22.3512 5.84205 22.2899 5.91119 22.246C5.9792 22.2028 6.05169 22.1882 6.11529 22.187C6.23072 22.1847 6.34969 22.2261 6.45196 22.27C6.59901 22.3305 6.75792 22.3996 6.91108 22.4833L6.91256 22.4841L6.91255 22.4842C9.27872 23.7978 11.777 24.6974 14.3866 25.274L14.3326 25.5181L14.3866 25.274C17.6699 25.9996 20.975 25.8799 24.3042 25.4978C24.5469 25.4685 24.6595 25.3404 24.691 25.2241C24.7231 25.1057 24.6893 24.9316 24.4961 24.7762L24.4639 24.7504C24.1025 24.4597 23.7302 24.1603 23.4667 23.9442C23.4061 23.8963 23.3267 23.8163 23.2725 23.7163C23.2188 23.6173 23.1625 23.4409 23.2707 23.2671C23.2709 23.2667 23.2712 23.2664 23.2714 23.266L23.4832 23.3987L23.4603 27.5694M22.6313 28.5556C22.6999 28.6046 22.8031 28.6739 22.9501 28.6853C23.0902 28.6961 23.2319 28.6519 23.3854 28.5771L23.3866 28.5766M22.6313 28.5556L23.3866 28.5766M23.3866 28.5766C24.0905 28.2292 24.7405 27.7769 25.3684 27.3401C25.3933 27.3227 25.4181 27.3054 25.443 27.2882L25.4431 27.2881M23.3866 28.5766L25.4431 27.2881M25.4431 27.2881C26.0236 26.8838 26.463 26.5642 26.9601 26.1714L26.9601 26.1714M25.4431 27.2881L26.9601 26.1714M26.9601 26.1714C27.1062 26.0559 27.2228 25.8999 27.2285 25.7026C27.2341 25.5086 27.1298 25.3492 27.0066 25.2303L27.0066 25.2302M26.9601 26.1714L27.0066 25.2302M27.0066 25.2302C26.9922 25.2164 26.9777 25.2023 26.9629 25.188M27.0066 25.2302L26.9629 25.188M26.9629 25.188C26.8041 25.0342 26.6216 24.8576 26.4142 24.7234M26.9629 25.188L26.4142 24.7234M26.4142 24.7234C25.8871 24.3784 25.3546 24.0445 24.8235 23.7115C24.6215 23.5848 24.4196 23.4583 24.2184 23.3313L26.4142 24.7234ZM25.1428 26.4525C25.1398 26.4518 25.1361 26.4507 25.1319 26.4491L25.1212 26.3875L25.0906 26.2108L25.1327 26.4058L25.1428 26.4525Z" fill="#FAFCFE" stroke="#FAFCFE" stroke-width="0.5"/>
</svg>
