<svg width="79" height="78" viewBox="0 0 79 78" fill="none" xmlns="http://www.w3.org/2000/svg">
<path d="M38.8608 39.897C38.216 39.734 37.6922 39.6382 37.1817 39.4626C32.0236 37.7057 27.4297 34.8995 23.0641 31.7082C22.5537 31.3327 22.0701 30.8642 21.7477 30.3432C21.5731 30.0626 21.5999 29.5034 21.7746 29.1846C21.9089 28.9455 22.4328 28.775 22.7283 28.8297C23.2924 28.9257 23.87 29.1283 24.3805 29.4105C27.7521 31.2651 31.1102 33.1329 34.4549 35.0273C35.7041 35.7394 36.9399 36.4913 38.1757 37.2299C38.5922 37.4717 38.9951 37.7401 39.3712 38.0216C39.8011 38.3301 40.0563 38.7975 39.7742 39.2622C39.5862 39.5676 39.4518 39.8999 38.8608 39.897Z" fill="#9987ED"/>
<path d="M58.8623 21.1364C58.7548 21.7752 58.6742 22.5206 58.5131 23.239C57.8683 26.0727 57.2235 28.9064 56.5519 31.7267C56.4041 32.3386 56.1489 32.9367 55.8534 33.4813C55.4639 34.2119 54.9131 34.4622 54.3087 34.3394C53.7042 34.2165 53.3281 33.7352 53.3146 32.8961C53.3012 32.3233 53.3146 31.7107 53.449 31.1653C54.3624 27.5871 55.3027 24.009 56.2564 20.4443C56.3638 20.0453 56.5519 19.6334 56.8205 19.3283C57.4787 18.5591 58.513 18.8039 58.7683 19.7908C58.8623 20.1775 58.822 20.6168 58.8623 21.1364Z" fill="#9987ED"/>
<path d="M22.8495 58.3844C22.2181 58.328 21.5868 58.1917 20.9689 58.0288C20.4182 57.8796 20.0286 57.5047 19.9749 56.9051C19.9346 56.3988 20.445 55.8553 21.1167 55.7787C22.0166 55.6766 22.9301 55.5878 23.83 55.6322C26.5434 55.7655 29.2702 55.952 31.9836 56.1519C32.8836 56.2229 33.7836 56.3472 34.6836 56.4981C34.9925 56.5529 35.3149 56.6611 35.5567 56.8354C36.2417 57.3049 36.188 58.1571 35.4492 58.4864C35.0328 58.6708 34.5224 58.7482 34.0657 58.7459C32.5612 58.8051 25.0793 58.5685 22.8495 58.3844Z" fill="#9987ED"/>
</svg>
