<svg width="98" height="99" viewBox="0 0 98 99" fill="none" xmlns="http://www.w3.org/2000/svg">
<g clip-path="url(#clip0)">
<path d="M21.1979 33.6961C26.4354 36.7052 31.6621 39.7206 36.9301 42.6833C37.2938 42.8909 37.9779 42.7839 38.3947 42.5865C48.306 37.8145 57.9484 38.5397 67.1869 44.3792C68.7227 45.3498 69.9717 46.8174 70.8747 48.7293C72.0714 51.2493 71.0463 53.8714 68.5037 55.0082C66.2811 56.0034 63.9702 55.9266 61.6439 55.5994C56.4958 54.8568 51.6938 52.9497 46.971 50.8817C43.9771 49.5721 41.067 48.0846 38.026 46.6438C37.207 47.9085 37.2141 49.8339 38.0449 51.0245C39.6102 53.2884 40.8028 54.1117 42.5478 55.4944C48.0232 59.8349 54.3146 62.6819 60.9659 64.5869C65.9161 66.0052 70.9613 67.0664 75.9657 68.2807C76.4013 68.3892 76.8567 68.4574 77.2601 68.5845C77.8905 68.7821 78.2843 69.1163 78.246 69.6711C78.3018 70.2149 77.5089 70.4566 77.0745 70.549C76.3598 70.7025 75.5918 70.7139 74.8725 70.6109C63.5103 69.0933 52.6401 66.0676 42.9936 59.571C40.8781 58.143 38.9534 56.3746 37.1747 54.5362C34.6277 51.8887 33.6851 48.7901 35.5838 45.2461C30.7008 42.205 25.8876 39.2101 20.9877 36.1644C21.9229 37.7843 22.8082 39.3177 23.6998 40.862C23.8495 41.1211 24.0314 41.3617 24.1595 41.6333C24.5109 42.3663 25.187 43.2142 24.2131 43.8629C23.2607 44.4991 22.7075 43.5658 22.3414 42.9565C20.4642 39.8791 18.6131 36.7722 16.8866 33.6079C16.1831 32.315 16.6669 31.2149 18.1066 31.0749C22.2682 30.6304 26.4695 30.3789 30.6555 30.1507C31.044 30.128 31.8246 30.4117 31.8788 31.2011C31.8609 31.8162 31.1231 32.2278 30.687 32.2923C28.0535 32.6753 25.3961 32.9424 22.7405 33.2374C22.2704 33.2928 21.7879 33.3266 21.3116 33.3713C20.5062 33.3179 20.7877 33.4577 21.1979 33.6961ZM40.2197 44.1822C39.8137 44.3734 40.656 44.6646 40.7767 44.7245C47.0915 47.8604 53.4883 50.7906 60.4146 52.2775C62.2663 52.6771 64.2549 52.7673 66.1431 52.5842C68.6509 52.3314 69.3841 50.3963 67.7329 48.4555C66.6642 47.2007 65.3598 46.0099 63.9237 45.212C57.8371 41.8004 49.4351 41.1366 44.553 42.5443C42.6932 43.0997 42.2413 43.3605 40.2197 44.1822Z" fill="#352F6A"/>
</g>
<defs>
<clipPath id="clip0">
<rect width="71.8247" height="71.5561" fill="white" transform="translate(35.9124 98.936) rotate(-120)"/>
</clipPath>
</defs>
</svg>
