<svg width="24" height="25" viewBox="0 0 24 25" fill="none" xmlns="http://www.w3.org/2000/svg">
<path d="M4 8.82349C4.55228 8.82349 5 8.37577 5 7.82349C5 7.2712 4.55228 6.82349 4 6.82349C3.44772 6.82349 3 7.2712 3 7.82349C3 8.37577 3.44772 8.82349 4 8.82349Z" fill="#8980F5"/>
<path d="M8 7.82349C8 8.37577 7.55228 8.82349 7 8.82349C6.44772 8.82349 6 8.37577 6 7.82349C6 7.2712 6.44772 6.82349 7 6.82349C7.55228 6.82349 8 7.2712 8 7.82349Z" fill="#8980F5"/>
<path d="M10 8.82349C10.5523 8.82349 11 8.37577 11 7.82349C11 7.2712 10.5523 6.82349 10 6.82349C9.44771 6.82349 9 7.2712 9 7.82349C9 8.37577 9.44771 8.82349 10 8.82349Z" fill="#8980F5"/>
<path fill-rule="evenodd" clip-rule="evenodd" d="M3 3.82349C1.34315 3.82349 0 5.16663 0 6.82349V18.8235C0 20.4803 1.34315 21.8235 3 21.8235H21C22.6569 21.8235 24 20.4803 24 18.8235V6.82349C24 5.16663 22.6569 3.82349 21 3.82349H3ZM21 5.82349H3C2.44772 5.82349 2 6.2712 2 6.82349V9.82349H22V6.82349C22 6.2712 21.5523 5.82349 21 5.82349ZM2 18.8235V11.8235H22V18.8235C22 19.3758 21.5523 19.8235 21 19.8235H3C2.44772 19.8235 2 19.3758 2 18.8235Z" fill="#8980F5"/>
</svg>
