<svg width="24" height="25" viewBox="0 0 24 25" fill="none" xmlns="http://www.w3.org/2000/svg">
<path fill-rule="evenodd" clip-rule="evenodd" d="M11 9.82349V13.9942C9.83481 14.406 9 15.5173 9 16.8235C9 18.4803 10.3431 19.8235 12 19.8235C13.6569 19.8235 15 18.4803 15 16.8235C15 15.5173 14.1652 14.406 13 13.9942V9.82349H11ZM11 16.8235C11 16.2712 11.4477 15.8235 12 15.8235C12.5523 15.8235 13 16.2712 13 16.8235C13 17.3758 12.5523 17.8235 12 17.8235C11.4477 17.8235 11 17.3758 11 16.8235Z" fill="#8980F5"/>
<path d="M12 5.82349C15.866 5.82349 19 8.95749 19 12.8235V13.8235H17V12.8235C17 10.0621 14.7614 7.82349 12 7.82349C9.23858 7.82349 7 10.0621 7 12.8235V13.8235H5V12.8235C5 8.95749 8.13401 5.82349 12 5.82349Z" fill="#8980F5"/>
<path fill-rule="evenodd" clip-rule="evenodd" d="M12 23.8235C18.0751 23.8235 23 18.8986 23 12.8235C23 6.74835 18.0751 1.82349 12 1.82349C5.92487 1.82349 1 6.74835 1 12.8235C1 18.8986 5.92487 23.8235 12 23.8235ZM12 21.8235C16.9706 21.8235 21 17.794 21 12.8235C21 7.85292 16.9706 3.82349 12 3.82349C7.02944 3.82349 3 7.85292 3 12.8235C3 17.794 7.02944 21.8235 12 21.8235Z" fill="#8980F5"/>
</svg>
