<svg width="24" height="25" viewBox="0 0 24 25" fill="none" xmlns="http://www.w3.org/2000/svg">
<path d="M8 18.8235V20.8235H16V18.8235H8Z" fill="#8980F5"/>
<path fill-rule="evenodd" clip-rule="evenodd" d="M13.988 4.04379C13.9959 3.97145 14 3.89794 14 3.82349C14 2.71892 13.1046 1.82349 12 1.82349C10.8954 1.82349 10 2.71892 10 3.82349C10 3.89794 10.0041 3.97145 10.012 4.04379C5.99799 4.94881 3 8.53604 3 12.8235C3 13.2118 3.02459 13.5943 3.0723 13.9697C1.86949 14.3604 1 15.4904 1 16.8235V20.8235C1 22.4803 2.34315 23.8235 4 23.8235H20C21.6569 23.8235 23 22.4803 23 20.8235V16.8235C23 15.4904 22.1305 14.3604 20.9277 13.9697C20.9754 13.5943 21 13.2118 21 12.8235C21 8.53604 18.002 4.94881 13.988 4.04379ZM12 5.82349C8.13401 5.82349 5 8.95749 5 12.8235C5 13.1637 5.02412 13.4975 5.07063 13.8235H18.9294C18.9759 13.4975 19 13.1637 19 12.8235C19 8.95749 15.866 5.82349 12 5.82349ZM3 16.8235C3 16.2712 3.44772 15.8235 4 15.8235H20C20.5523 15.8235 21 16.2712 21 16.8235V20.8235C21 21.3758 20.5523 21.8235 20 21.8235H4C3.44772 21.8235 3 21.3758 3 20.8235V16.8235Z" fill="#8980F5"/>
</svg>
